<?xml version="1.0" standalone="no"?>
<!DOCTYPE svg PUBLIC "-//W3C//DTD SVG 20010904//EN"
 "http://www.w3.org/TR/2001/REC-SVG-20010904/DTD/svg10.dtd">
<svg version="1.0" xmlns="http://www.w3.org/2000/svg"
 width="920.000000pt" height="512.000000pt" viewBox="0 0 920.000000 512.000000"
 preserveAspectRatio="xMidYMid meet">

<g transform="translate(0.000000,512.000000) scale(0.100000,-0.100000)"
fill="#000000" stroke="none">
<path d="M4485 4652 c-70 -24 -1582 -899 -1622 -938 -44 -43 -45 -90 -4 -131
34 -34 1566 -920 1625 -940 53 -19 180 -18 231 0 22 8 297 163 610 344 314
181 631 365 705 408 74 43 167 96 205 118 172 100 178 162 23 255 -337 202
-1503 870 -1543 884 -64 22 -166 22 -230 0z m228 -527 c104 -27 181 -77 213
-137 18 -35 18 -98 -1 -168 -25 -92 -21 -124 21 -158 l35 -29 -165 -92 -165
-92 -39 25 c-86 54 -97 94 -63 241 27 123 8 164 -88 186 -124 28 -319 -80
-426 -235 -21 -31 -41 -56 -44 -56 -3 0 -57 29 -119 64 l-113 63 74 69 c260
243 642 381 880 319z m519 -626 c71 -40 126 -75 121 -79 -4 -5 -78 -47 -163
-95 l-155 -87 -70 38 c-160 87 -197 111 -184 120 45 29 306 173 313 174 5 0
68 -32 138 -71z"/>
<path d="M2736 3357 c-13 -13 -27 -40 -31 -58 -3 -19 -5 -407 -3 -864 l3 -830
28 -57 c58 -117 52 -113 873 -587 418 -241 774 -442 791 -445 47 -11 90 15
103 62 8 26 10 292 8 877 l-3 840 -28 57 c-42 86 -97 135 -252 224 -1319 762
-1381 797 -1422 802 -35 4 -46 0 -67 -21z m554 -638 c215 -59 445 -218 548
-378 58 -88 83 -162 89 -257 10 -144 -22 -194 -164 -260 -98 -46 -113 -62
-113 -124 l0 -29 -142 82 -143 83 -3 54 c-5 99 19 123 198 205 59 27 84 71 76
129 -21 135 -186 245 -377 249 l-69 2 0 133 c0 100 3 132 13 132 7 0 46 -9 87
-21z m247 -1109 l113 -65 0 -153 c0 -85 -3 -152 -8 -150 -4 2 -69 38 -145 82
l-137 78 0 155 0 155 33 -19 c17 -10 83 -48 144 -83z"/>
<path d="M6340 3361 c-19 -10 -105 -59 -190 -108 -1202 -693 -1317 -761 -1354
-798 -21 -22 -53 -69 -70 -105 l-31 -65 -3 -843 c-2 -754 -1 -847 13 -877 19
-39 60 -59 101 -49 16 4 337 185 714 402 377 218 714 412 749 431 95 53 155
112 193 189 l33 67 3 845 c2 624 -1 852 -9 873 -24 57 -85 73 -149 38z m-390
-719 c49 -24 72 -71 78 -156 8 -127 -33 -234 -171 -451 -81 -128 -97 -162
-106 -228 l-6 -49 -144 -84 -144 -84 5 74 c6 90 41 170 148 336 40 62 84 137
98 169 32 70 35 147 7 167 -53 39 -137 -8 -297 -167 l-128 -127 0 131 1 132
82 73 c154 135 297 225 415 263 73 23 118 23 162 1z m-200 -1165 l0 -153 -143
-82 c-78 -45 -144 -82 -147 -82 -3 0 -4 69 -2 153 l3 153 142 82 c78 45 143
82 144 82 2 0 3 -69 3 -153z"/>
</g>
</svg>
